<svg xmlns="http://www.w3.org/2000/svg" width="1140" height="540" viewBox="0 0 1140 540">
  <title>06 Mobile App Icon Preview</title>
  <rect x="70" y="70" width="400" height="400" rx="95" fill="#ffffff" stroke="#e5e7ec" stroke-width="3"></rect>
  <g transform="translate(175.4,145) scale(1.3514)">
    <mask id="lk06a" maskUnits="userSpaceOnUse" x="-10" y="-10" width="160" height="205">
      <rect x="-10" y="-10" width="160" height="205" fill="#fff"></rect>
      <circle cx="70" cy="120" r="38" fill="#000"></circle>
    </mask>
    <path d="M 36 92 L 36 45 A 34 34 0 0 1 104 45 L 104 92" fill="none" stroke="#fec005" stroke-width="22" mask="url(#lk06a)"></path>
    <path d="M 5 120 a 65 65 0 1 0 130 0 a 65 65 0 1 0 -130 0 Z M 33 120 a 37 37 0 1 0 74 0 a 37 37 0 1 0 -74 0 Z" fill="#fec005" fill-rule="evenodd"></path>
  </g>
  <rect x="670" y="70" width="400" height="400" rx="95" fill="#031532"></rect>
  <g transform="translate(775.4,145) scale(1.3514)">
    <mask id="lk06b" maskUnits="userSpaceOnUse" x="-10" y="-10" width="160" height="205">
      <rect x="-10" y="-10" width="160" height="205" fill="#fff"></rect>
      <circle cx="70" cy="120" r="38" fill="#000"></circle>
    </mask>
    <path d="M 36 92 L 36 45 A 34 34 0 0 1 104 45 L 104 92" fill="none" stroke="#fec005" stroke-width="22" mask="url(#lk06b)"></path>
    <path d="M 5 120 a 65 65 0 1 0 130 0 a 65 65 0 1 0 -130 0 Z M 33 120 a 37 37 0 1 0 74 0 a 37 37 0 1 0 -74 0 Z" fill="#fec005" fill-rule="evenodd"></path>
  </g>
</svg>