<svg xmlns="http://www.w3.org/2000/svg" width="1020" height="510" viewBox="0 0 1020 510">
  <title>05 Favicon Preview</title>
  <g transform="translate(67.2,245) scale(0.5405)">
    <mask id="lk050" maskUnits="userSpaceOnUse" x="-10" y="-10" width="160" height="205">
      <rect x="-10" y="-10" width="160" height="205" fill="#fff"></rect>
      <circle cx="70" cy="120" r="38" fill="#000"></circle>
    </mask>
    <path d="M 36 92 L 36 45 A 34 34 0 0 1 104 45 L 104 92" fill="none" stroke="#fec005" stroke-width="22" mask="url(#lk050)"></path>
    <path d="M 5 120 a 65 65 0 1 0 130 0 a 65 65 0 1 0 -130 0 Z M 33 120 a 37 37 0 1 0 74 0 a 37 37 0 1 0 -74 0 Z" fill="#fec005" fill-rule="evenodd"></path>
  </g>
  <path d="M5.9-28.2L1.7-28.2L1.7-31.8L9.9-31.8L9.9 0L5.9 0L5.9-28.2ZM34.5-24.2Q33.6-29.1 28.5-29.1L28.5-29.1Q24.6-29.1 22.7-26.1Q20.7-23.1 20.8-16.2L20.8-16.2Q21.8-18.5 24.1-19.8Q26.5-21.1 29.4-21.1L29.4-21.1Q33.9-21.1 36.6-18.3Q39.3-15.4 39.3-10.5L39.3-10.5Q39.3-7.5 38.2-5.1Q37.0-2.7 34.6-1.3Q32.3 0.1 29.0 0.1L29.0 0.1Q24.4 0.1 21.9-1.9Q19.3-4.0 18.3-7.5Q17.3-11.1 17.3-16.3L17.3-16.3Q17.3-32.5 28.6-32.5L28.6-32.5Q32.9-32.5 35.3-30.1Q37.8-27.8 38.2-24.2L38.2-24.2L34.5-24.2ZM28.6-17.7Q26.7-17.7 25.0-16.9Q23.3-16.1 22.3-14.6Q21.3-13.0 21.3-10.8L21.3-10.8Q21.3-7.4 23.2-5.3Q25.1-3.3 28.7-3.3L28.7-3.3Q31.8-3.3 33.6-5.2Q35.5-7.1 35.5-10.3L35.5-10.3Q35.5-13.8 33.7-15.7Q31.9-17.7 28.6-17.7L28.6-17.7ZM49.4-19.7Q50.6-21.7 53.0-23.1Q55.3-24.5 58.4-24.5L58.4-24.5Q61.6-24.5 64.3-23.0Q66.9-21.4 68.4-18.6Q69.9-15.8 69.9-12.1L69.9-12.1Q69.9-8.5 68.4-5.6Q66.9-2.8 64.3-1.2Q61.6 0.4 58.4 0.4L58.4 0.4Q55.4 0.4 53.0-1.0Q50.6-2.4 49.4-4.4L49.4-4.4L49.4 11.4L45.4 11.4L45.4-24.1L49.4-24.1L49.4-19.7ZM65.8-12.1Q65.8-14.9 64.7-16.9Q63.6-18.9 61.7-20.0Q59.8-21.0 57.6-21.0L57.6-21.0Q55.4-21.0 53.5-20.0Q51.7-18.9 50.5-16.8Q49.4-14.8 49.4-12.1L49.4-12.1Q49.4-9.4 50.5-7.3Q51.7-5.3 53.5-4.2Q55.4-3.1 57.6-3.1L57.6-3.1Q59.8-3.1 61.7-4.2Q63.6-5.3 64.7-7.3Q65.8-9.4 65.8-12.1L65.8-12.1ZM92.3 0L87.7 0L82.0-9.0L76.5 0L72.3 0L80.1-12.0L72.3-24.1L76.9-24.1L82.6-15.2L88.0-24.1L92.2-24.1L84.5-12.2L92.3 0Z" fill="#9aa1ac" transform="translate(32.2,440) scale(1.6)"></path>
  <g transform="translate(378.1,155) scale(1.0270)">
    <mask id="lk051" maskUnits="userSpaceOnUse" x="-10" y="-10" width="160" height="205">
      <rect x="-10" y="-10" width="160" height="205" fill="#fff"></rect>
      <circle cx="70" cy="120" r="38" fill="#000"></circle>
    </mask>
    <path d="M 36 92 L 36 45 A 34 34 0 0 1 104 45 L 104 92" fill="none" stroke="#fec005" stroke-width="22" mask="url(#lk051)"></path>
    <path d="M 5 120 a 65 65 0 1 0 130 0 a 65 65 0 1 0 -130 0 Z M 33 120 a 37 37 0 1 0 74 0 a 37 37 0 1 0 -74 0 Z" fill="#fec005" fill-rule="evenodd"></path>
  </g>
  <path d="M2.2-3.2Q7.8-7.7 11-10.6Q14.2-13.5 16.3-16.6Q18.5-19.8 18.5-22.8L18.5-22.8Q18.5-25.7 17.1-27.3Q15.8-29.0 12.7-29.0L12.7-29.0Q9.7-29.0 8.0-27.1Q6.4-25.2 6.2-22.1L6.2-22.1L2.4-22.1Q2.6-27.0 5.4-29.7Q8.2-32.4 12.6-32.4L12.6-32.4Q17.2-32.4 19.8-29.9Q22.5-27.4 22.5-23.0L22.5-23.0Q22.5-19.3 20.3-15.9Q18.1-12.4 15.4-9.8Q12.6-7.2 8.3-3.7L8.3-3.7L23.4-3.7L23.4-0.4L2.2-0.4L2.2-3.2ZM43.3-7.1L27.1-7.1L27.1-10.1L42.5-31.5L47.3-31.5L47.3-10.6L51.7-10.6L51.7-7.1L47.3-7.1L47.3 0L43.3 0L43.3-7.1ZM43.5-10.6L43.5-27.3L31.7-10.6L43.5-10.6ZM60.4-19.7Q61.6-21.7 63.9-23.1Q66.3-24.5 69.4-24.5L69.4-24.5Q72.6-24.5 75.2-23.0Q77.8-21.4 79.3-18.6Q80.8-15.8 80.8-12.1L80.8-12.1Q80.8-8.5 79.3-5.6Q77.8-2.8 75.2-1.2Q72.6 0.4 69.4 0.4L69.4 0.4Q66.3 0.4 64.0-1.0Q61.6-2.4 60.4-4.4L60.4-4.4L60.4 11.4L56.4 11.4L56.4-24.1L60.4-24.1L60.4-19.7ZM76.7-12.1Q76.7-14.9 75.6-16.9Q74.5-18.9 72.7-20.0Q70.8-21.0 68.6-21.0L68.6-21.0Q66.4-21.0 64.5-20.0Q62.6-18.9 61.5-16.8Q60.4-14.8 60.4-12.1L60.4-12.1Q60.4-9.4 61.5-7.3Q62.6-5.3 64.5-4.2Q66.4-3.1 68.6-3.1L68.6-3.1Q70.8-3.1 72.7-4.2Q74.5-5.3 75.6-7.3Q76.7-9.4 76.7-12.1L76.7-12.1ZM103.2 0L98.7 0L93.0-9.0L87.5 0L83.3 0L91.1-12.0L83.3-24.1L87.8-24.1L93.5-15.2L99-24.1L103.2-24.1L95.4-12.2L103.2 0Z" fill="#9aa1ac" transform="translate(367.6,440) scale(1.6)"></path>
  <g transform="translate(774.1,65) scale(1.5135)">
    <mask id="lk052" maskUnits="userSpaceOnUse" x="-10" y="-10" width="160" height="205">
      <rect x="-10" y="-10" width="160" height="205" fill="#fff"></rect>
      <circle cx="70" cy="120" r="38" fill="#000"></circle>
    </mask>
    <path d="M 36 92 L 36 45 A 34 34 0 0 1 104 45 L 104 92" fill="none" stroke="#fec005" stroke-width="22" mask="url(#lk052)"></path>
    <path d="M 5 120 a 65 65 0 1 0 130 0 a 65 65 0 1 0 -130 0 Z M 33 120 a 37 37 0 1 0 74 0 a 37 37 0 1 0 -74 0 Z" fill="#fec005" fill-rule="evenodd"></path>
  </g>
  <path d="M18.0-7.1L1.8-7.1L1.8-10.1L17.2-31.5L22-31.5L22-10.6L26.4-10.6L26.4-7.1L22-7.1L22 0L18.0 0L18.0-7.1ZM18.2-10.6L18.2-27.3L6.4-10.6L18.2-10.6ZM36.2-16.5Q33.7-17.5 32.4-19.4Q31.1-21.2 31.1-23.8L31.1-23.8Q31.1-26.2 32.3-28.1Q33.5-30.1 35.8-31.2Q38.2-32.3 41.5-32.3L41.5-32.3Q44.9-32.3 47.2-31.2Q49.6-30.1 50.8-28.1Q52.0-26.2 52.0-23.8L52.0-23.8Q52.0-21.3 50.6-19.4Q49.3-17.5 46.9-16.5L46.9-16.5Q49.6-15.7 51.2-13.6Q52.8-11.5 52.8-8.6L52.8-8.6Q52.8-5.7 51.4-3.6Q50.0-1.5 47.5-0.3Q44.9 0.9 41.5 0.9L41.5 0.9Q38.2 0.9 35.7-0.3Q33.1-1.5 31.7-3.6Q30.3-5.7 30.3-8.6L30.3-8.6Q30.3-11.5 31.9-13.6Q33.5-15.8 36.2-16.5L36.2-16.5ZM48.1-23.4Q48.1-26.0 46.4-27.5Q44.6-29.0 41.5-29.0L41.5-29.0Q38.5-29.0 36.7-27.5Q35.0-26.0 35.0-23.3L35.0-23.3Q35.0-20.9 36.8-19.4Q38.6-17.9 41.5-17.9L41.5-17.9Q44.5-17.9 46.3-19.4Q48.1-20.9 48.1-23.4L48.1-23.4ZM41.5-14.8Q38.3-14.8 36.2-13.3Q34.1-11.7 34.1-8.7L34.1-8.7Q34.1-5.9 36.1-4.2Q38.1-2.5 41.5-2.5L41.5-2.5Q44.9-2.5 46.9-4.2Q48.9-5.9 48.9-8.7L48.9-8.7Q48.9-11.7 46.9-13.2Q44.8-14.8 41.5-14.8L41.5-14.8ZM62.8-19.7Q64.0-21.7 66.4-23.1Q68.7-24.5 71.9-24.5L71.9-24.5Q75.1-24.5 77.7-23.0Q80.3-21.4 81.8-18.6Q83.3-15.8 83.3-12.1L83.3-12.1Q83.3-8.5 81.8-5.6Q80.3-2.8 77.7-1.2Q75.1 0.4 71.9 0.4L71.9 0.4Q68.8 0.4 66.4-1.0Q64.1-2.4 62.8-4.4L62.8-4.4L62.8 11.4L58.8 11.4L58.8-24.1L62.8-24.1L62.8-19.7ZM79.2-12.1Q79.2-14.9 78.1-16.9Q77-18.9 75.1-20.0Q73.3-21.0 71.0-21.0L71.0-21.0Q68.8-21.0 66.9-20.0Q65.1-18.9 64.0-16.8Q62.8-14.8 62.8-12.1L62.8-12.1Q62.8-9.4 64.0-7.3Q65.1-5.3 66.9-4.2Q68.8-3.1 71.0-3.1L71.0-3.1Q73.3-3.1 75.1-4.2Q77-5.3 78.1-7.3Q79.2-9.4 79.2-12.1L79.2-12.1ZM105.7 0L101.2 0L95.4-9.0L89.9 0L85.8 0L93.5-12.0L85.8-24.1L90.3-24.1L96.0-15.2L101.5-24.1L105.6-24.1L97.9-12.2L105.7 0Z" fill="#9aa1ac" transform="translate(795.2,440) scale(1.6)"></path>
  
</svg>