<svg xmlns="http://www.w3.org/2000/svg" width="830" height="220" viewBox="0 0 830 220">
  <title>Fintlock Logo — White on Navy (derived from official 04 White on Navy.svg)</title>
  <g transform="translate(26,183)"><path d="M68.4-111.6L68.4-83.2L50-83.2L50 0L15.8 0L15.8-83.2L3.4-83.2L3.4-111.6L15.8-111.6L15.8-114.8Q15.8-135.4 27.6-146.1Q39.4-156.8 62.2-156.8L62.2-156.8Q66-156.8 67.8-156.6L67.8-156.6L67.8-127.6Q58-128.2 54-124.8Q50-121.4 50-112.6L50-112.6L50-111.6L68.4-111.6ZM101.6-123.2Q92.6-123.2 86.9-128.5Q81.2-133.8 81.2-141.6L81.2-141.6Q81.2-149.6 86.9-154.9Q92.6-160.2 101.6-160.2L101.6-160.2Q110.4-160.2 116.1-154.9Q121.8-149.6 121.8-141.6L121.8-141.6Q121.8-133.8 116.1-128.5Q110.4-123.2 101.6-123.2L101.6-123.2ZM84.4-111.6L118.6-111.6L118.6 0L84.4 0L84.4-111.6ZM211.4-112.8Q231-112.8 242.7-100.1Q254.4-87.4 254.4-65.2L254.4-65.2L254.4 0L220.4 0L220.4-60.6Q220.4-71.8 214.6-78Q208.8-84.2 199-84.2L199-84.2Q189.2-84.2 183.4-78Q177.6-71.8 177.6-60.6L177.6-60.6L177.6 0L143.4 0L143.4-111.6L177.6-111.6L177.6-96.8Q182.8-104.2 191.6-108.5Q200.4-112.8 211.4-112.8L211.4-112.8ZM328.2-29L340.4-29L340.4 0L323 0Q304.4 0 294-9.1Q283.6-18.2 283.6-38.8L283.6-38.8L283.6-83.2L270-83.2L270-111.6L283.6-111.6L283.6-138.8L317.8-138.8L317.8-111.6L340.2-111.6L340.2-83.2L317.8-83.2L317.8-38.4Q317.8-33.4 320.2-31.2Q322.6-29 328.2-29L328.2-29ZM359.4-148L393.6-148L393.6 0L359.4 0L359.4-148Z" fill="#ffffff"></path>
  <path d="M539-55.8Q539-73.2 546.1-86.2Q553.2-99.2 565.9-106.2Q578.6-113.2 595-113.2L595-113.2Q616-113.2 630.1-102.2Q644.2-91.2 648.6-71.2L648.6-71.2L612.2-71.2Q607.6-84 594.4-84L594.4-84Q585-84 579.4-76.7Q573.8-69.4 573.8-55.8L573.8-55.8Q573.8-42.2 579.4-34.9Q585-27.6 594.4-27.6L594.4-27.6Q607.6-27.6 612.2-40.4L612.2-40.4L648.6-40.4Q644.2-20.8 630-9.6Q615.8 1.6 595 1.6L595 1.6Q578.6 1.6 565.9-5.4Q553.2-12.4 546.1-25.4Q539-38.4 539-55.8L539-55.8ZM777.4 0L735 0L701-46.8L701 0L666.8 0L666.8-148L701-148L701-66.2L734.8-111.6L777-111.6L730.6-55.6L777.4 0Z" fill="#ffffff"></path>
  <g transform="translate(412.8,-148.0) scale(0.8108)">
    <mask id="lkw" maskUnits="userSpaceOnUse" x="-10" y="-10" width="160" height="205">
      <rect x="-10" y="-10" width="160" height="205" fill="#fff"></rect>
      <circle cx="70" cy="120" r="38" fill="#000"></circle>
    </mask>
    <path d="M 36 92 L 36 45 A 34 34 0 0 1 104 45 L 104 92" fill="none" stroke="#fec005" stroke-width="22" mask="url(#lkw)"></path>
    <path d="M 5 120 a 65 65 0 1 0 130 0 a 65 65 0 1 0 -130 0 Z M 33 120 a 37 37 0 1 0 74 0 a 37 37 0 1 0 -74 0 Z" fill="#fec005" fill-rule="evenodd"></path>
  </g></g>
</svg>
